<svg height="512pt" viewBox="0 0 512 512" width="512pt" xmlns="http://www.w3.org/2000/svg"><path fill="#ccc" d="M376.266 467.086c0 11.027-8.938 19.965-19.961 19.965H79.844C35.816 487.05 0 451.23 0 407.203v-229.55c0-16.84 5.184-32.95 14.996-46.59 6.438-8.95 18.91-10.981 27.86-4.547 8.949 6.437 10.984 18.914 4.546 27.863-4.894 6.805-7.48 14.851-7.48 23.273v229.551c0 22.016 17.91 39.922 39.922 39.922h276.46c11.024 0 19.962 8.938 19.962 19.96zm-219.63-222.274c-10.874-1.878-21.19 5.41-23.07 16.274a125.816 125.816 0 00-1.824 21.363c0 68.79 55.965 124.754 124.758 124.754 8.184 0 16.371-.797 24.336-2.375 10.812-2.14 17.844-12.644 15.703-23.457-2.14-10.816-12.644-17.848-23.457-15.703a85.748 85.748 0 01-16.582 1.613c-46.777 0-84.836-38.054-84.836-84.832 0-4.894.418-9.793 1.242-14.566 1.88-10.863-5.406-21.192-16.27-23.07zm349.52 260.344a19.902 19.902 0 01-14.117 5.848c-5.11 0-10.219-1.95-14.117-5.848L6.844 34.078c-7.797-7.797-7.797-20.437 0-28.23 7.797-7.797 20.433-7.797 28.23 0l87.364 87.363a20 20 0 006.039-8.582l6.91-19.137c8.539-23.652 31.175-39.543 56.324-39.543h127.52c25.644 0 48.425 16.313 56.69 40.59l6.04 17.742a19.956 19.956 0 0018.894 13.528h30.301c44.028 0 79.844 35.82 79.844 79.843v129.746c0 11.028-8.934 19.961-19.96 19.961-11.024 0-19.962-8.933-19.962-19.96V177.651c0-22.011-17.906-39.922-39.922-39.922h-30.3c-25.641 0-48.426-16.308-56.688-40.585l-6.043-17.743a19.954 19.954 0 00-18.895-13.53H191.71c-8.382 0-15.929 5.296-18.776 13.179l-6.91 19.136c-3.235 8.961-8.547 16.907-15.329 23.282l49.598 49.597A124.56 124.56 0 01256.5 157.69c68.79 0 124.754 55.965 124.754 124.758 0 19.692-4.594 38.863-13.367 56.211l94.027 94.027c5.863-7.042 9.164-15.957 9.164-25.484 0-11.023 8.938-19.96 19.961-19.96 11.027 0 19.961 8.937 19.961 19.96 0 20.352-7.512 39.324-20.77 53.8l15.926 15.923c7.793 7.797 7.793 20.437 0 28.23zm-275.344-303.57l106.551 106.55a84.908 84.908 0 003.969-25.687c0-46.777-38.055-84.836-84.832-84.836a84.903 84.903 0 00-25.688 3.973zm0 0"/></svg>