<svg xmlns="http://www.w3.org/2000/svg" viewBox="0 0 565.55 587.82"><g fill="#3498db"><path d="M455.1 395.11A204.94 204.94 0 00489 282c0-113.7-92.5-206.2-206.2-206.2S76.57 168.32 76.57 282a205 205 0 0033.86 113.09L29.77 512.74l92.3-17.21 17.21 92.29 76.06-110.93a206.29 206.29 0 00134.85 0l76.07 110.93 17.21-92.29 92.29 17.21zM155.59 510.68l-9.39-50.35-50.34 9.39 34-49.54a207.49 207.49 0 0057.31 44.48zM106.74 282c0-97.06 79-176 176-176s176 79 176 176-79 176-176 176-176-78.91-176-176zm312.59 178.33L410 510.68l-31.56-46a207.54 207.54 0 0057.32-44.48l34 49.54z"/><path d="M246 327.31l-49-49.06-21.34 21.34L246 370l143.93-143.93-21.34-21.34z"/><path d="M559.87 314l-31.56 2.15a245.66 245.66 0 01-16.19 60.54l26.23 17.62a5.67 5.67 0 012.08 7.75l-8.51 14.75-8.51 14.74-2.55 4.41-40.12-50.82a221.75 221.75 0 0024.91-102.35c0-123.09-99.78-222.88-222.88-222.88S59.89 159.68 59.89 282.77a221.83 221.83 0 0025.7 103.89L45.53 437.4l-3.39-5.87-8.51-14.74L25.12 402a5.67 5.67 0 012.07-7.75l26.23-17.62a246.1 246.1 0 01-16.19-60.54L5.68 314A5.67 5.67 0 010 308.31v-51.07a5.68 5.68 0 015.68-5.68l31.55-2.15a246.15 246.15 0 0116.19-60.53l-26.23-17.63a5.67 5.67 0 01-2.07-7.75l8.51-14.74L42.14 134l8.51-14.74a5.67 5.67 0 017.75-2.07l28.43 13.92a248.9 248.9 0 0144.29-44.29L117.2 58.41a5.68 5.68 0 012.07-7.76L134 42.14l14.75-8.51 14.74-8.51a5.67 5.67 0 017.75 2.07l17.63 26.23a246.15 246.15 0 0160.53-16.19l2.15-31.55A5.68 5.68 0 01257.24 0h51.07A5.67 5.67 0 01314 5.68l2.15 31.55a246.1 246.1 0 0160.54 16.19l17.62-26.23a5.67 5.67 0 017.69-2.07l14.75 8.51 14.74 8.51 14.74 8.51a5.68 5.68 0 012.08 7.76l-13.88 28.42a249.23 249.23 0 0144.29 44.29l28.42-13.92a5.68 5.68 0 017.76 2.07l8.51 14.73 8.51 14.75 8.51 14.74a5.67 5.67 0 01-2.08 7.75l-26.23 17.63a245.7 245.7 0 0116.19 60.53l31.56 2.15a5.68 5.68 0 015.68 5.68v51.07a5.67 5.67 0 01-5.68 5.7z" fill="#054c82"/></g></svg>