<svg xmlns="http://www.w3.org/2000/svg" viewBox="0 0 449.5 451.6"><g fill="#d3d3d3"><path d="M429.5 327.5l-30.4-13.9-26.8-42.8c-7.8-12.4-21.4-19.9-36.1-19.8H221.9c-13.3 0-25.8 6.1-33.9 16.7L153.4 313l-57.8 15.8c-14.7 4-24.8 17.4-24.8 32.6v22.1c0 18.7 14.9 34.1 33.6 34.1h5c6 23 29.5 36.8 52.5 30.9 15.1-4 27-15.7 30.9-30.9h130.3c6 23 29.5 36.8 52.5 30.9 15.1-4 27-15.7 30.9-30.9h9.3c18.7 0 33.6-15.4 33.6-34.1v-25.2c-.2-13.2-7.9-25.3-19.9-30.8zM151 434.3c-15.2 0-27.5-12.3-27.5-27.5s12.3-27.5 27.5-27.5 27.5 12.3 27.5 27.5c.1 15.1-12.3 27.4-27.5 27.5zm213.6 0c-15.2 0-27.5-12.3-27.5-27.5s12.3-27.5 27.5-27.5 27.5 12.3 27.5 27.5c.1 15.1-12.3 27.4-27.5 27.5zm51-32.1h-8.2c-2.6-23.6-23.9-40.7-47.5-38.1-20.1 2.2-35.9 18.1-38.1 38.1h-128c-2.6-23.6-23.9-40.7-47.5-38.1-20.1 2.2-35.9 18.1-38.1 38.1h-3.9c-10.2 0-18.1-8.5-18.1-18.6v-22.1c-.1-8.3 5.4-15.5 13.4-17.8l60.4-16.5c1.6-.5 3.1-1.4 4.1-2.8l36.1-47.4c5.2-6.7 13.2-10.5 21.6-10.5h114.3c9.3-.1 18.1 4.7 23 12.6l28.1 44.8c.8 1.3 2 2.3 3.3 2.9l32.4 14.8c6.5 3 10.7 9.5 10.6 16.7v25.2h.1c.1 10.2-7.9 18.7-18 18.7z"/><path d="M57.9 351.2h-12c-23.1 0-34.4-12.7-39.7-23.3-5.6-11-5.9-22-5.9-22.4V101.1c0-33 38.7-58.6 40.3-59.6l1.9-1.2h81.7c.8 0 3.2-.1 4.5-1.3 1.3-1.2 1.6-3.8 1.6-5.6 0-23.8 21-31.6 32.1-32.4h100.4c12.8 0 20.6 8.3 23.2 13.4 1.9 3.4 26.3 46.2 32.7 59.1 7 13.9 6.8 28.8 6.7 30.7v130.2h-15V103.7c0-.1.4-12.5-5.1-23.6-6.4-12.7-32.1-58-32.4-58.5l-.2-.3c-.5-.8-3.4-5.4-9.9-5.4h-99.6c-2.6.3-18 2.4-18 17.4 0 9-3.6 14.1-6.7 16.9-5.9 5.3-13.3 5.2-15.5 5H47c-6.9 4.9-31.8 24.3-31.8 45.8v204c0 .6.4 8.6 4.4 16.3 5.2 9.9 13.7 14.7 26.2 14.7h11.9v15.2z"/><path d="M270.4 134.1H53.7l-25.1-19.7 9.2-11.8 21.1 16.5h206.5l22-16.6 9 12zm2.5-51.2H170.7c-4.1 0-7.5-3.4-7.5-7.5V35.1c0-4.1 3.4-7.5 7.5-7.5h77.6c2.6 0 5 1.4 6.4 3.6l24.6 40.3c1.4 2.3 1.5 5.2.1 7.6-1.3 2.3-3.8 3.8-6.5 3.8zm-94.7-15h81.4l-15.4-25.3h-65.9v25.3zm-64.3-20.1h-15V16H54v31.8H39V8.5C39 4.4 42.4 1 46.5 1h59.9c4.1 0 7.5 3.4 7.5 7.5v39.3zM31 151.8h15v147.6H31zm78.3 138.3c-22.9 0-41.6-18.6-41.6-41.6 0-20 29.1-63.4 35-71.9l6.6-9.6 6.6 9.6c5.8 8.5 35 51.9 35 71.9 0 23-18.7 41.6-41.6 41.6zm0-94.4c-12.2 19.1-25.6 43.5-25.6 52.8 0 14.1 11.5 25.6 25.6 25.6s25.6-11.5 25.6-25.6c0-9.2-13.4-33.7-25.6-52.8z"/></g></svg>